<svg width="20" height="20" viewBox="0 0 20 20" fill="none" xmlns="http://www.w3.org/2000/svg">
<g id="Navbar Icon" opacity="0.8">
<g id="Vector">
<path fill-rule="evenodd" clip-rule="evenodd" d="M0.833252 3.03682C0.833252 2.65216 1.14372 2.34033 1.5267 2.34033H13.0811C13.4641 2.34033 13.7745 2.65216 13.7745 3.03682V13.0945C13.7745 13.4791 13.4641 13.791 13.0811 13.791H1.5267C1.14372 13.791 0.833252 13.4791 0.833252 13.0945V3.03682ZM2.22016 3.73331V12.398H12.3876V3.73331H2.22016Z" fill="white"/>
<path fill-rule="evenodd" clip-rule="evenodd" d="M12.3876 6.90518C12.3876 6.52052 12.6981 6.20869 13.0811 6.20869H16.1623C16.3462 6.20869 16.5226 6.28207 16.6526 6.41269L18.9635 8.73369C19.0935 8.8643 19.1666 9.04146 19.1666 9.22618V13.0945C19.1666 13.4792 18.8561 13.791 18.4731 13.791L13.0811 13.791C12.6981 13.791 12.3876 13.4792 12.3876 13.0945V6.90518ZM13.7745 7.60167V12.398H17.7797V9.51467L15.875 7.60167H13.7745Z" fill="white"/>
<path fill-rule="evenodd" clip-rule="evenodd" d="M4.99297 13.791C4.31241 13.791 3.7607 14.3451 3.7607 15.0286C3.7607 15.7122 4.31241 16.2663 4.99297 16.2663C5.67354 16.2663 6.22525 15.7122 6.22525 15.0286C6.22525 14.3451 5.67354 13.791 4.99297 13.791ZM2.37379 15.0286C2.37379 13.5758 3.54644 12.398 4.99297 12.398C6.43951 12.398 7.61216 13.5758 7.61216 15.0286C7.61216 16.4815 6.43951 17.6593 4.99297 17.6593C3.54644 17.6593 2.37379 16.4815 2.37379 15.0286Z" fill="white"/>
<path fill-rule="evenodd" clip-rule="evenodd" d="M15.0068 13.791C14.3262 13.791 13.7745 14.3451 13.7745 15.0286C13.7745 15.7122 14.3262 16.2663 15.0068 16.2663C15.6874 16.2663 16.2391 15.7122 16.2391 15.0286C16.2391 14.3451 15.6874 13.791 15.0068 13.791ZM12.3876 15.0286C12.3876 13.5758 13.5603 12.398 15.0068 12.398C16.4533 12.398 17.626 13.5758 17.626 15.0286C17.626 16.4815 16.4533 17.6593 15.0068 17.6593C13.5603 17.6593 12.3876 16.4815 12.3876 15.0286Z" fill="white"/>
</g>
</g>
</svg>
