<svg width="14" height="14" viewBox="0 0 14 14" fill="none" xmlns="http://www.w3.org/2000/svg">
<g id="Outlined / Info" clip-path="url(#clip0_39564_279138)">
<g id="Vector">
<path fill-rule="evenodd" clip-rule="evenodd" d="M6.99995 1.63353C4.03602 1.63353 1.63328 4.03627 1.63328 7.0002C1.63328 9.96412 4.03602 12.3669 6.99995 12.3669C9.96388 12.3669 12.3666 9.96412 12.3666 7.0002C12.3666 4.03627 9.96388 1.63353 6.99995 1.63353ZM0.699951 7.0002C0.699951 3.5208 3.52056 0.700195 6.99995 0.700195C10.4793 0.700195 13.3 3.5208 13.3 7.0002C13.3 10.4796 10.4793 13.3002 6.99995 13.3002C3.52056 13.3002 0.699951 10.4796 0.699951 7.0002Z" fill="#4D4D4D"/>
<path fill-rule="evenodd" clip-rule="evenodd" d="M6.99995 6.62382C7.25768 6.62382 7.46662 6.83276 7.46662 7.09049L7.46663 9.44604C7.46663 9.70377 7.25769 9.9127 6.99996 9.9127C6.74223 9.9127 6.53329 9.70377 6.53329 9.44604L6.53329 7.09049C6.53328 6.83276 6.74222 6.62382 6.99995 6.62382Z" fill="#4D4D4D"/>
<path fill-rule="evenodd" clip-rule="evenodd" d="M7.52777 4.75852C7.52777 5.05002 7.29146 5.28633 6.99997 5.28633C6.70847 5.28633 6.47216 5.05002 6.47216 4.75852C6.47216 4.46702 6.70847 4.23072 6.99997 4.23072C7.29146 4.23072 7.52777 4.46702 7.52777 4.75852Z" fill="#4D4D4D"/>
</g>
</g>
<defs>
<clipPath id="clip0_39564_279138">
<rect width="14" height="14" fill="white"/>
</clipPath>
</defs>
</svg>
