<svg width="20" height="20" viewBox="0 0 20 20" fill="none" xmlns="http://www.w3.org/2000/svg">
<g id="Navbar Icon" opacity="0.8">
<g id="Vector">
<path fill-rule="evenodd" clip-rule="evenodd" d="M14.297 1.98737C14.1116 1.19626 13.4055 0.625 12.5802 0.625H7.41964L7.28871 0.629913L7.15264 0.645423L7.01881 0.671421C6.2277 0.856753 5.65645 1.56287 5.65645 2.38819V2.60323H4.19429L4.04425 2.60717C2.70291 2.67794 1.61401 3.69145 1.61401 4.96848V17.0098L1.61845 17.1505C1.69796 18.4071 2.83539 19.375 4.19429 19.375H15.8055L15.9556 19.3711C17.2969 19.3003 18.3858 18.2868 18.3858 17.0098V4.96848L18.3814 4.82771C18.3019 3.57113 17.1644 2.60323 15.8055 2.60323H14.3434V2.38819L14.3385 2.25726L14.323 2.12119L14.297 1.98737ZM14.3434 3.89336V4.10837C14.3434 4.93369 13.7721 5.63981 12.981 5.82514L12.8472 5.85114L12.7111 5.86665L12.5802 5.87156H7.41964C6.59432 5.87156 5.8882 5.3003 5.70287 4.5092L5.67687 4.37537L5.66136 4.2393L5.65645 4.10837V3.89336H4.19429C3.50879 3.89336 2.97082 4.33572 2.9099 4.86776L2.90415 4.96848V17.0098C2.90415 17.5516 3.4018 18.0259 4.06757 18.0798L4.19429 18.0849H15.8055C16.491 18.0849 17.029 17.6425 17.0899 17.1105L17.0957 17.0098V4.96848C17.0957 4.42661 16.598 3.95238 15.9323 3.89846L15.8055 3.89336H14.3434ZM7.67739 1.61411H12.3224C12.7694 1.61411 13.1589 1.90084 13.3002 2.31864L13.3303 2.42573L13.3485 2.53612L13.3545 2.64625L13.354 3.86708L13.345 3.98931L13.3237 4.10085L13.2868 4.21899C13.178 4.50363 12.9481 4.72443 12.6586 4.8251L12.5474 4.85711L12.4311 4.87652L12.3224 4.88246L7.66066 4.88191L7.53843 4.87291L7.42689 4.85165L7.30875 4.81468C7.02411 4.70593 6.80331 4.47604 6.70264 4.18656L6.67063 4.07533L6.65122 3.95905L6.64528 3.85031L6.64583 2.62948L6.65483 2.50725L6.67609 2.39571L6.71306 2.27757C6.82181 1.99293 7.0517 1.77213 7.34118 1.67146L7.45241 1.63945L7.56869 1.62004L7.67739 1.61411Z" fill="white"/>
<path d="M5.46284 10.5959C5.93807 10.5959 6.32331 10.2107 6.32331 9.73547C6.32331 9.26025 5.93807 8.875 5.46284 8.875C4.98762 8.875 4.60237 9.26025 4.60237 9.73547C4.60237 10.2107 4.98762 10.5959 5.46284 10.5959Z" fill="white"/>
<path d="M8.04428 8.9485C7.61226 8.9485 7.26204 9.29872 7.26204 9.73075C7.26204 10.1628 7.61226 10.513 8.04428 10.513H14.6151C15.0472 10.513 15.3974 10.1628 15.3974 9.73075C15.3974 9.29872 15.0472 8.9485 14.6151 8.9485H8.04428Z" fill="white"/>
<path d="M7.26207 14.1522C7.26207 13.7202 7.61229 13.3699 8.04432 13.3699H14.6152C15.0472 13.3699 15.3974 13.7202 15.3974 14.1522C15.3974 14.5842 15.0472 14.9344 14.6152 14.9344H8.04432C7.61229 14.9344 7.26207 14.5842 7.26207 14.1522Z" fill="white"/>
<path d="M5.46288 15.0174C5.9381 15.0174 6.32335 14.6321 6.32335 14.1569C6.32335 13.6817 5.9381 13.2964 5.46288 13.2964C4.98765 13.2964 4.6024 13.6817 4.6024 14.1569C4.6024 14.6321 4.98765 15.0174 5.46288 15.0174Z" fill="white"/>
</g>
</g>
</svg>
