<svg width="20" height="20" viewBox="0 0 20 20" fill="none" xmlns="http://www.w3.org/2000/svg">
<g id="Navbar Icon" opacity="0.8">
<path id="Vector" fill-rule="evenodd" clip-rule="evenodd" d="M18.8083 7.41667C18.6833 7.16667 18.425 7 18.1417 7H11.0917L11.8667 0.816667C11.9083 0.5 11.7333 0.183333 11.4333 0.0583333C11.3417 0.0166667 11.2417 0 11.15 0C10.9333 0 10.725 0.0916667 10.5833 0.258333L1.83334 10.7583C1.65001 10.975 1.61667 11.2833 1.73334 11.5333C1.85001 11.7917 2.11667 11.9583 2.39167 11.9583H9.44167L8.66667 18.1333C8.63334 18.4583 8.80834 18.7667 9.10001 18.9C9.4 19.025 9.75 18.9417 9.95834 18.6917L18.7083 8.19167C18.8833 7.975 18.925 7.675 18.8083 7.41667ZM10.425 15.85L10.9917 11.3167C11.0167 11.1083 10.95 10.9 10.8167 10.7417C10.675 10.5917 10.475 10.5 10.2667 10.5H3.95001L10.1083 3.10833L9.54167 7.63333C9.51667 7.84167 9.58334 8.05 9.72501 8.20833C9.85834 8.36667 10.0583 8.45833 10.2667 8.45833H16.5833L10.425 15.85Z" fill="white"/>
</g>
</svg>
