<svg width="20" height="20" viewBox="0 0 20 20" fill="none" xmlns="http://www.w3.org/2000/svg">
<g id="Navbar Icon" opacity="0.8">
<path id="Vector" d="M17.081 10.8332C17.7713 10.8332 18.331 11.3928 18.331 12.0832V17.0832C18.331 17.7735 17.7713 18.3332 17.081 18.3332H12.081C11.3906 18.3332 10.831 17.7735 10.831 17.0832V12.0832C10.831 11.3928 11.3906 10.8332 12.081 10.8332H17.081ZM7.91675 10.8332C8.6071 10.8332 9.16675 11.3928 9.16675 12.0832V17.0832C9.16675 17.7735 8.6071 18.3332 7.91675 18.3332H2.91675C2.22639 18.3332 1.66675 17.7735 1.66675 17.0832V12.0832C1.66675 11.3928 2.22639 10.8332 2.91675 10.8332H7.91675ZM16.9142 12.2498H12.2476V16.9165H16.9142V12.2498ZM7.75008 12.2498H3.08341V16.9165H7.75008V12.2498ZM7.91675 1.6665C8.6071 1.6665 9.16675 2.22615 9.16675 2.9165V7.9165C9.16675 8.60686 8.6071 9.1665 7.91675 9.1665H2.91675C2.22639 9.1665 1.66675 8.60686 1.66675 7.9165V2.9165C1.66675 2.22615 2.22639 1.6665 2.91675 1.6665H7.91675ZM17.081 1.6665C17.7713 1.6665 18.331 2.22615 18.331 2.9165V7.9165C18.331 8.60686 17.7713 9.1665 17.081 9.1665H12.081C11.3906 9.1665 10.831 8.60686 10.831 7.9165V2.9165C10.831 2.22615 11.3906 1.6665 12.081 1.6665H17.081ZM7.75008 3.08317H3.08341V7.74984H7.75008V3.08317ZM16.9142 3.08317H12.2476V7.74984H16.9142V3.08317Z" fill="white"/>
</g>
</svg>
