<svg width="14" height="14" viewBox="0 0 14 14" fill="none" xmlns="http://www.w3.org/2000/svg">
<g id="Outlined / Help" clip-path="url(#clip0_91507_80899)">
<g id="Vector">
<path fill-rule="evenodd" clip-rule="evenodd" d="M7.77759 10.1808C7.77759 10.6103 7.42944 10.9584 6.99997 10.9584C6.57051 10.9584 6.22236 10.6103 6.22236 10.1808C6.22236 9.75137 6.57051 9.40322 6.99997 9.40322C7.42944 9.40322 7.77759 9.75137 7.77759 10.1808Z" fill="#4D4D4D"/>
<path fill-rule="evenodd" clip-rule="evenodd" d="M6.127 3.40771C6.54381 3.23506 7.00246 3.18988 7.44495 3.2779C7.88744 3.36592 8.29389 3.58317 8.61291 3.90219C8.93193 4.2212 9.14918 4.62765 9.2372 5.07014C9.32521 5.51263 9.28004 5.97128 9.10739 6.3881C8.93474 6.80491 8.64237 7.16117 8.26724 7.41182C8.02314 7.57492 7.75114 7.68854 7.4666 7.74801V7.84799C7.4666 8.10573 7.25767 8.31466 6.99993 8.31466C6.7422 8.31466 6.53327 8.10573 6.53327 7.84799V7.32959C6.53327 7.20582 6.58243 7.08712 6.66995 6.9996C6.75747 6.91209 6.87617 6.86292 6.99993 6.86292C7.2665 6.86292 7.52707 6.78388 7.74871 6.63578C7.97035 6.48769 8.14309 6.2772 8.2451 6.03093C8.34711 5.78466 8.3738 5.51367 8.3218 5.25223C8.26979 4.99079 8.14143 4.75064 7.95294 4.56215C7.76446 4.37366 7.52431 4.2453 7.26287 4.1933C7.00143 4.14129 6.73044 4.16799 6.48417 4.26999C6.2379 4.372 6.02741 4.54475 5.87931 4.76639C5.73122 4.98802 5.65217 5.2486 5.65217 5.51516C5.65217 5.77289 5.44324 5.98183 5.18551 5.98183C4.92778 5.98183 4.71884 5.77289 4.71884 5.51516C4.71884 5.064 4.85262 4.62298 5.10327 4.24785C5.35392 3.87273 5.71018 3.58036 6.127 3.40771Z" fill="#4D4D4D"/>
<path fill-rule="evenodd" clip-rule="evenodd" d="M6.99995 1.63353C4.03602 1.63353 1.63328 4.03627 1.63328 7.0002C1.63328 9.96412 4.03602 12.3669 6.99995 12.3669C9.96388 12.3669 12.3666 9.96412 12.3666 7.0002C12.3666 4.03627 9.96388 1.63353 6.99995 1.63353ZM0.699951 7.0002C0.699951 3.5208 3.52056 0.700195 6.99995 0.700195C10.4793 0.700195 13.3 3.5208 13.3 7.0002C13.3 10.4796 10.4793 13.3002 6.99995 13.3002C3.52056 13.3002 0.699951 10.4796 0.699951 7.0002Z" fill="#4D4D4D"/>
</g>
</g>
<defs>
<clipPath id="clip0_91507_80899">
<rect width="14" height="14" fill="white"/>
</clipPath>
</defs>
</svg>
