<svg width="16" height="16" viewBox="0 0 16 16" fill="none" xmlns="http://www.w3.org/2000/svg">
<g id="Outlined / Sort">
<g id="Vector">
<path fill-rule="evenodd" clip-rule="evenodd" d="M1.62288 9.93375C1.83116 9.72547 2.16885 9.72547 2.37713 9.93375L4.64088 12.1975L6.90462 9.93375C7.1129 9.72547 7.45059 9.72547 7.65887 9.93375C7.86715 10.142 7.86715 10.4797 7.65887 10.688L5.018 13.3289C4.80972 13.5371 4.47203 13.5371 4.26375 13.3289L1.62288 10.688C1.4146 10.4797 1.4146 10.142 1.62288 9.93375Z" fill="#4D4D4D"/>
<path fill-rule="evenodd" clip-rule="evenodd" d="M4.64083 2.51515C4.93538 2.51515 5.17416 2.75393 5.17416 3.04849L5.17416 12.9517C5.17416 13.2463 4.93538 13.4851 4.64083 13.4851C4.34628 13.4851 4.1075 13.2463 4.1075 12.9517L4.1075 3.04849C4.1075 2.75393 4.34628 2.51515 4.64083 2.51515Z" fill="#4D4D4D"/>
<path fill-rule="evenodd" clip-rule="evenodd" d="M14.3771 6.06646C14.1688 6.27474 13.8311 6.27474 13.6229 6.06646L11.3591 3.80272L9.09538 6.06646C8.8871 6.27474 8.54941 6.27474 8.34113 6.06646C8.13285 5.85818 8.13285 5.52049 8.34113 5.31221L10.982 2.67135C11.1903 2.46307 11.528 2.46307 11.7362 2.67135L14.3771 5.31221C14.5854 5.52049 14.5854 5.85818 14.3771 6.06646Z" fill="#4D4D4D"/>
<path fill-rule="evenodd" clip-rule="evenodd" d="M11.3592 13.4851C11.0646 13.4851 10.8258 13.2463 10.8258 12.9517L10.8258 3.04847C10.8258 2.75392 11.0646 2.51514 11.3592 2.51514C11.6537 2.51514 11.8925 2.75392 11.8925 3.04847L11.8925 12.9517C11.8925 13.2463 11.6537 13.4851 11.3592 13.4851Z" fill="#4D4D4D"/>
</g>
</g>
</svg>
