<svg width="24" height="24" viewBox="0 0 24 24" fill="none" xmlns="http://www.w3.org/2000/svg">
<g id="outline / wallet">
<path id="wallet" fill-rule="evenodd" clip-rule="evenodd" d="M2.99995 3.79727C2.42319 3.79727 1.79995 4.35527 1.79995 5.24727V18.7473C1.79995 19.6393 2.42319 20.1973 2.99995 20.1973H21C21.5767 20.1973 22.2 19.6393 22.2 18.7473V15.8473H17C14.8737 15.8473 13.15 14.1236 13.15 11.9973C13.15 9.87097 14.8737 8.14727 17 8.14727H22.2V5.24727C22.2 4.35527 21.5767 3.79727 21 3.79727H2.99995ZM23.7999 8.14727V5.24727C23.7999 3.65398 22.6323 2.19727 21 2.19727H2.99995C1.36758 2.19727 0.199951 3.65398 0.199951 5.24727V18.7473C0.199951 20.3405 1.36758 21.7973 2.99995 21.7973H21C22.6323 21.7973 23.7999 20.3405 23.7999 18.7473V15.8473H23.85V8.14727H23.7999ZM16 11.9473C16 11.4778 16.3806 11.0973 16.85 11.0973H18.15C18.6194 11.0973 19 11.4778 19 11.9473C19 12.4167 18.6194 12.7973 18.15 12.7973H16.85C16.3806 12.7973 16 12.4167 16 11.9473ZM14.85 11.9973C14.85 10.8099 15.8126 9.84727 17 9.84727H22.15V14.1473H17C15.8126 14.1473 14.85 13.1847 14.85 11.9973Z" fill="white"/>
</g>
</svg>
